<svg height="1142pt" preserveAspectRatio="xMidYMid meet" viewBox="0 0 1142 1142" width="1142pt" xmlns="http://www.w3.org/2000/svg"><g transform="matrix(.1 0 0 -.1 0 1142)"><path d="m5640 9792c-157-171-294-405-341-582-24-88-32-271-17-370 25-169 149-423 288-590 51-61 55-63 61-40 3 14 7 79 8 145 5 335 13 458 37 615 30 198 32 206 50 221 8 6 14 9 14 6s6-36 14-74c16-74 41-242 51-338 6-55 14-342 15-523 0-66 1-71 18-61 28 18 145 177 196 267 105 185 155 363 151 532-8 279-148 567-406 833-20 20-44 37-52 37-9 0-48-35-87-78z"/><path d="m7474 8761c-153-53-306-149-394-248-64-72-87-114-121-216-28-82-32-105-32-217-1-126 5-180 23-180 5 0 21 21 36 48 58 102 130 210 186 282 67 84 158 183 164 177 14-14-122-298-220-459-47-79-60-108-49-108 28 0 155 62 240 117 151 98 260 253 288 408 9 53 6 288-5 345-16 82-21 84-116 51z"/><path d="m3882 8767c-37-44-45-309-13-428 54-210 167-336 406-454 135-67 139-62 59 70-106 175-209 395-202 431 7 39 226-244 341-441 41-69 51-51 53 98 3 234-45 367-181 502-77 76-179 141-316 199-91 38-130 44-147 23z"/><path d="m5579 7936c-2-2-63-17-134-31-271-57-579-178-805-318-501-309-803-715-914-1232-65-297-68-569-11-940 25-166 93-434 183-723 31-98 33-93 123 258 86 333 140 478 261 700 133 243 356 502 597 694 96 77 237 174 299 206 23 12 45 26 48 31s27 20 54 34c76 38 68 46-14 15-140-54-343-165-506-277-61-42-204-166-306-265-61-59-117-108-124-108-18 0-7 338 15 446 78 401 286 737 625 1012 45 36 15 33-56-6-108-59-180-116-297-235-150-153-225-271-296-466-78-213-94-436-50-676 24-132 26-123-35-210-102-146-116-169-208-352-51-100-93-181-95-180-2 3-24 134-37 227-18 126-24 423-11 566 33 381 153 694 371 969 283 357 691 627 1209 800 96 32 161 65 129 65-6 0-13-2-15-4z"/><path d="m2225 7888c-114-9-244-33-258-47-21-21 52-205 141-361 77-133 121-189 247-313 179-176 450-274 783-282 98-2 316 16 328 27 7 7-24 26-161 98-275 145-588 355-725 487-13 13-11 13 15 7 128-30 407-140 605-239 147-73 161-81 285-153 101-59 101-58 25 103-132 282-369 514-618 605-179 65-404 88-667 68z"/><path d="m8899 7896c-2-2-29-6-59-9-67-6-200-40-286-72-166-63-320-179-449-340-22-28-43-51-47-53-5-2-8-8-8-13s-15-32-34-61c-18-29-54-95-80-145-43-87-55-123-39-123 10 0 146 71 163 85 33 28 293 154 420 204 74 29 146 57 160 63 42 18 223 78 234 78 18 0-49-62-139-129-193-143-374-258-575-364-153-81-170-93-151-106 21-13 165-25 306-24 201 2 397 43 538 115 125 63 206 119 274 189 131 136 204 244 294 434 62 131 82 200 64 215-14 12-122 36-205 45-61 7-376 16-381 11z"/><path d="m6880 7462c0-5 21-39 47-78 114-170 183-378 183-551 0-54-5-116-11-138s-14-56-18-75c-14-63-70-167-140-258-134-173-302-304-616-479-289-162-452-276-640-445-71-65-135-124-142-132-139-166-206-276-259-428-22-60-27-97-31-211-4-90-1-159 7-200 12-63 59-185 113-292 36-73 148-248 154-241 3 2-18 58-45 123-51 120-88 231-97 287-3 17-9 51-14 76-29 132-4 311 63 455 74 160 296 395 507 536 21 14 62 45 92 67 29 23 147 97 263 166 389 231 495 307 654 470 84 86 85 87 124 81 101-15 228-121 330-274 65-98 196-332 196-351 0-10 36-77 53-98 9-11 12-10 19 2 20 35 1 310-30 446-18 78-29 112-76 237-19 50-106 210-150 273-16 25-65 81-107 125l-77 80-5 145c-4 130-8 154-36 230-17 47-47 117-66 155-61 125-245 347-245 297zm462-1049c56-108 113-237 163-367 46-119 45-180-2-98-70 123-205 237-323 272-37 11-77 20-89 20-30 0-27 17 23 111 25 46 56 115 70 152 14 38 29 73 32 79 12 19 67-54 126-169z"/><path d="m5626 7375c-81-33-160-89-196-138-33-45-34-63-4-60 26 2 107-40 160-83 51-42 109-112 101-121-3-3-34 12-69 34-179 113-305 102-390-35-28-45-23-167 8-209 33-44 65-51 105-21 38 29 105 52 193 67 69 13 166 14 166 4 0-5-31-27-68-50-72-45-162-131-186-177-54-105 161-219 393-207 27 1 26 8-10 106-18 51-20 73-15 145 5 85 21 150 36 150 16 0 65-46 105-101 25-34 51-87 65-130 13-41 27-79 32-86 22-28 167 55 247 142 40 44 43 50 38 91-2 25-12 53-22 63-36 41-177 85-316 99-38 4-71 12-72 17-3 15 134 80 195 93 29 6 83 13 121 14 75 3 79 6 79 83 0 121-114 234-235 235-100 0-159-61-221-230-13-35-28-66-34-68-17-5-32 67-29 144 4 90 37 151 102 190 25 14 45 29 45 33 0 16-82 31-171 31-76 0-105-5-153-25z"/><path d="m2573 6065c-87-13-222-54-288-88-88-44-234-153-235-174 0-35 219-176 347-223 151-55 330-60 470-15 126 42 321 158 293 175-6 4-63 7-128 9-64 1-144 3-177 6-186 13-224 17-260 26-62 15-69 19-59 28 10 10 45 16 139 26 33 3 80 8 105 11 25 4 117 8 205 10s166 3 173 4c25 0 11 18-47 59-73 51-170 95-278 126-106 31-159 35-260 20z"/><path d="m8655 6055c-85-19-158-48-250-100-79-45-123-80-114-89 3-3 79-8 169-11 159-5 369-21 400-30 8-2 28-6 44-9 45-8 42-14-15-30-75-21-133-26-384-32-121-4-222-8-225-11-21-19 240-162 345-188 76-20 262-18 353 2 74 17 189 67 267 115 101 64 155 109 155 128 0 35-161 144-316 213-123 54-297 71-429 42z"/><path d="m7406 5319c-16-12-26-31-27-47 0-15-13-49-28-77-32-60-93-104-186-135-94-31-93-43 5-36 121 9 135 19 298 190 33 34 33 35 13 46-26 14-27 35-1 53 11 8 17 17 13 20-13 14-61 6-87-14z"/><path d="m6584 4855c-48-43-132-88-202-109-39-11-84-14-177-11l-125 4-35-46c-51-67-48-75 15-43 54 27 62 26 58-12-3-40-13-40 165 6 155 40 218 70 288 138 43 42 70 91 57 103-3 3-22-11-44-30z"/><path d="m6915 4859c4-13 32-71 63-129 114-215 125-239 126-279 1-49-36-91-119-136-30-17-55-33-55-37 0-21 145 29 204 70 74 51 72 118-9 226-30 41-55 79-55 84 0 6-6 12-13 15s-39 48-70 100c-59 98-85 130-72 86z"/><path d="m6898 3108c-1-29-1-73 2-98l5-45 133-3 132-3v100 101h-134-134z"/><path d="m8566 3108c-7-59 6-127 26-139 13-9 173-4 219 6 31 7 36 27 31 123l-4 62h-133-133z"/><path d="m4278 3072c-46-3-46-4-73-60-37-80-41-90-60-152-10-30-39-108-66-172-27-65-49-123-49-129s-6-25-14-42c-31-67-88-213-93-237-3-14-13-44-24-67-10-24-19-46-19-50 0-5-14-43-31-85-30-74-33-78-73-90-54-15-62-27-65-91-3-83-5-82 245-82 117 0 216 4 220 8 5 4 10 36 12 71 5 70-10 96-54 96-13 0-24 5-24 10 0 22 42 135 53 142 13 8 335 9 384 1 30-5 34-10 52-71 11-36 18-69 15-73-3-5-21-11-40-15l-35-6 2-75c2-59 6-76 19-83 28-15 425-7 444 9 17 14 23 105 8 129-5 7-28 18-52 25-40 11-45 17-68 72-13 33-28 69-32 80-5 11-33 88-63 170-30 83-68 186-85 230s-49 132-72 195-62 163-86 222c-43 100-48 108-77 113-42 7-140 11-199 7zm162-512c33-96 60-185 60-197 0-23-2-23-135-23-132 0-135 1-135 22 0 20 103 334 122 372 6 11 14 14 19 9s36-87 69-183z"/><path d="m717 3064c-4-4-7-40-7-80v-72l65-12 66-12-2-440-1-439-21-8c-12-5-44-11-70-15l-48-7 2-75c2-60 5-77 20-84 19-11 534-8 544 2 12 12 17 83 8 118-9 33-13 36-74 50l-64 16-3 122c-2 93 0 123 10 126 7 3 78 7 158 10s170 10 200 16c141 27 276 131 319 245 20 51 22 75 19 160-3 71-9 111-23 139-27 57-121 149-185 181-108 55-126 57-530 62-207 2-379 1-383-3zm695-208c45-8 84-34 112-75 24-34 28-51 29-108 0-81-14-115-66-157l-39-31-159-3-159-3v190c0 172 2 190 18 193 22 5 230 1 264-6z"/><path d="m6347 2984c-1-2-30-4-64-5-71-3-67 4-78-128-3-41-8-78-11-83-3-4-26-8-52-9-75-1-77-2-80-106l-3-93h66c44 0 67-4 70-12 2-7 6-134 10-281 7-317 14-348 91-406 71-53 133-71 234-65 150 9 168 22 155 117-13 93-16 97-83 97-45 0-66 5-86 21l-26 20v239c0 131 3 245 6 254 5 12 21 16 73 16 36 0 73 4 81 10 17 10 26 137 12 158-5 7-43 19-85 25-41 7-77 14-80 17-2 3-8 46-11 95-4 50-11 94-17 99-8 9-116 26-122 20z"/><path d="m9225 2983c-33-8-35-15-41-114-4-52-9-97-13-101-3-4-32-8-64-9s-61-7-64-12c-7-12-7-162 0-174 4-6 32-11 64-12s61-5 64-9c4-4 9-134 13-289 4-208 9-292 20-316 49-118 187-173 366-145 90 14 94 18 87 106-3 40-11 80-17 88-8 9-32 14-69 14-99 0-96-12-99 289l-3 261h68c37 0 75 5 83 10 10 6 16 32 18 83 5 96-4 107-98 107h-68l-4 100c-2 60-9 105-16 112-13 13-189 22-227 11z"/><path d="m2455 2748c-22-11-54-34-72-50l-31-30-13 40c-10 34-16 41-43 44-57 6-354 3-361-4-12-11-16-69-10-115 7-45 4-44 108-67l27-6v-279-278l-56-12c-34-8-58-19-62-29-8-22-7-131 3-140 4-4 121-7 261-7 216 0 256 2 264 15 5 8 10 45 10 81v67l-66 12-65 13 3 222c3 239 4 242 58 270 15 8 65 16 111 19 94 6 108 16 110 75 0 20 2 43 3 51 2 8 6 36 9 62 6 47 6 47-26 52-88 15-124 13-162-6z"/><path d="m3090 2759c-175-20-291-105-358-261-25-59-27-72-27-219v-155l37-76c80-160 211-241 408-251 307-16 509 198 494 524-4 72-41 201-75 256-79 128-281 205-479 182zm160-214c99-51 139-230 90-396-24-81-61-123-120-139-88-24-171 15-211 98-19 41-22 64-22 172 0 109 3 131 23 172 12 26 38 61 56 78 30 26 42 30 95 30 34 0 73-7 89-15z"/><path d="m5436 2754c-113-29-226-106-263-178-9-17-19-33-22-36-4-3-15-32-25-65-28-89-32-270-8-356 59-212 230-330 469-323 180 5 322 98 376 244 23 63 22 89-5 99-22 9-225 8-231 0-2-2-16-26-31-52-32-56-71-77-143-77-64 0-104 26-134 86-20 42-24 67-27 171-3 115-2 125 24 182 34 76 74 104 148 104 100 0 121-16 150-117 14-48 27-52 148-55 102-2 95-12 97 151l2 113-48 32c-71 48-133 71-223 83-97 13-188 11-254-6z"/><path d="m8035 2752c-107-5-113-8-120-56-4-24-4-58 0-75 5-25 14-33 46-41 36-10 39-13 33-38-4-15-13-40-20-56-8-16-14-36-14-44 0-32-94-293-101-280-17 31-120 373-117 391 2 14 14 24 36 29 20 5 32 15 33 26 0 9 2 26 4 37s1 39-2 63l-6 42-221-4-221-4-13-33c-9-20-11-49-7-75 5-37 9-42 44-53 21-6 43-17 49-24s35-78 65-157c30-80 82-215 115-300s69-180 80-210c12-34 28-59 42-67 25-12 194-16 236-4 28 7 43 38 129 266 94 252 149 391 157 400 4 5 8 19 8 30 0 24 38 65 61 65 39 1 57 51 44 127-5 27-11 33-38 38-37 6-228 11-302 7z"/><path d="m9743 2749c-32-9-33-11-33-67 0-69 14-92 65-106 32-10 40-18 60-66 38-92 257-623 272-661 14-34 13-37-22-96-40-67-78-93-137-93-54 0-67-16-79-104-14-104-9-110 109-114 207-8 277 55 411 369 45 104 81 192 81 197 0 4 20 57 45 117 25 61 73 179 106 263 34 84 68 159 76 168 9 8 28 18 44 21s32 9 35 14c8 13 8 148 0 156-7 7-467 5-474-2-9-9-10-130-1-147 6-10 21-18 37-18 55 0 57-10 24-101-17-46-42-120-57-164-25-74-49-115-59-104-2 2-25 63-51 134-25 72-53 147-61 169-18 46-6 66 37 66 36 0 49 24 49 92 0 86 9 83-232 85-117 1-228-2-245-8z"/><path d="m6788 2743c-37-4-38-5-39-46-3-90 11-112 76-121 22-4 46-14 53-23 9-13 12-81 10-282l-3-265-57-15c-63-16-58-7-63-114-2-35 2-50 14-56 9-5 128-8 264-7 280 1 267-3 267 84 0 63-19 87-80 97-23 4-43 12-46 18-3 10-8 235-13 680l-1 57-172-2c-95-1-190-3-210-5z"/><path d="m8433 2723c-11-44-8-109 5-126 7-8 32-18 57-21 24-4 48-12 53-19 6-7 10-116 9-281l-2-269-60-19-60-18v-72c0-69 1-72 27-79 35-9 494-6 504 4 13 13 17 113 5 136-7 13-29 25-57 32-24 6-49 20-54 30-6 10-11 168-13 373l-2 356h-202-203z"/></g></svg>